<svg width="197" height="273" viewBox="0 0 197 273" fill="none" xmlns="http://www.w3.org/2000/svg">
<path d="M98.154 37.3136C84.4912 23.5723 56.0751 3.97747 37.721 4.00588C34.5734 4.00588 31.3316 3.75712 23.557 6.84246V73.0565V139.271C31.544 136.111 39.9531 134.502 48.4227 134.512C67.5278 134.512 84.9586 142.57 98.154 155.812M98.154 37.3136C111.816 23.5716 140.233 4.00588 158.587 4.00588C162.994 4.00589 164.976 3.75712 172.751 6.84246V139.271C164.764 136.111 156.355 134.502 147.885 134.512C129.531 134.484 111.817 142.071 98.154 155.812M98.154 37.3136V155.812" stroke="#023E8A" stroke-width="8" stroke-linecap="round" stroke-linejoin="round"/>
<path d="M98.4812 37.9405C82.8409 24.3705 62.5626 16.4059 41.5519 16.4339C31.5703 16.4339 21.9872 18.0859 13.0872 21.1327V151.91C22.2302 148.79 31.8565 147.201 41.5519 147.211C63.4222 147.211 83.3759 155.168 98.4812 168.245M98.4812 37.9405C114.121 24.3698 134.4 16.405 155.411 16.4339C165.392 16.4339 174.975 18.0859 183.875 21.1327V151.91C174.732 148.79 165.106 147.201 155.411 147.211C134.4 147.183 114.121 154.675 98.4812 168.245M98.4812 37.9405V168.245" stroke="#005FD8" stroke-width="8" stroke-linecap="round" stroke-linejoin="round"/>
<path d="M98.154 34.3612C86.0688 24.1219 68.5483 22.5987 52.5983 24.1702C34.0226 26.0199 15.2752 32.294 3.59489 37.5286C2.52316 38.0088 1.61433 38.7828 0.97689 39.7582C0.33945 40.7335 0.000326011 41.869 0 43.029V109.518L21.9211 149.362C21.9213 150.373 21.4293 154.599 21.9211 155.487C22.4128 156.375 51.5989 132.072 23.9859 157.674C24.849 158.221 32.0214 157.601 33.0452 157.674C34.0689 157.747 35.0949 157.566 36.0293 157.148C46.8507 152.312 36.9304 170.858 53.8252 169.177C71.1126 167.461 85.6026 170.229 93.369 179.779C93.9438 180.485 94.6722 181.055 95.5004 181.447C96.3286 181.838 97.2354 182.041 98.154 182.041C99.0726 182.041 99.9794 181.838 100.808 181.447C101.636 181.055 102.364 180.485 102.939 179.779C110.705 170.229 125.195 167.461 142.471 169.177C159.378 170.858 157.361 161.935 168.171 166.77C166.048 152.032 177.953 169.251 178.977 169.177C180 169.104 177.123 159.903 177.986 159.356C178.849 158.808 179.784 172.171 180.276 171.283C167.612 151.737 187.633 158.685 187.634 157.674L196.308 109.518V43.029C196.308 41.869 195.969 40.7335 195.331 39.7582C194.694 38.7828 193.785 38.0088 192.713 37.5286C181.033 32.294 162.285 26.0199 143.71 24.1702C127.76 22.5866 110.239 24.1219 98.154 34.3612Z" fill="url(#paint0_linear_316_2)"/>
<path d="M98.154 35.8869L0 78.8699V143.344C0 202.983 41.879 258.754 98.154 272.293C154.429 258.754 196.308 202.983 196.308 143.344V78.8699L98.154 35.8869Z" fill="url(#paint1_linear_316_2)"/>
<mask id="mask0_316_2" style="mask-type:alpha" maskUnits="userSpaceOnUse" x="0" y="23" width="197" height="250">
<path d="M98.154 34.3612C86.0688 24.1219 68.5483 22.5987 52.5983 24.1702C34.0226 26.0199 15.2752 32.294 3.59489 37.5286C2.52316 38.0088 1.61433 38.7828 0.97689 39.7582C0.33945 40.7335 0.000326011 41.869 0 43.029V109.518L21.9211 149.362C21.9213 150.373 21.4293 154.599 21.9211 155.487C22.4128 156.375 51.5989 132.072 23.9859 157.674C24.849 158.221 32.0214 157.601 33.0452 157.674C34.0689 157.747 35.0949 157.566 36.0293 157.148C46.8507 152.312 36.9304 170.858 53.8252 169.177C71.1126 167.461 85.6026 170.229 93.369 179.779C93.9438 180.485 94.6722 181.055 95.5004 181.447C96.3286 181.838 97.2354 182.041 98.154 182.041C99.0726 182.041 99.9794 181.838 100.808 181.447C101.636 181.055 102.364 180.485 102.939 179.779C110.705 170.229 125.195 167.461 142.471 169.177C159.378 170.858 157.361 161.935 168.171 166.77C166.048 152.032 177.953 169.251 178.977 169.177C180 169.104 177.123 159.903 177.986 159.356C178.849 158.808 179.784 172.171 180.276 171.283C167.612 151.737 187.633 158.685 187.634 157.674L196.308 109.518V43.029C196.308 41.869 195.969 40.7335 195.331 39.7582C194.694 38.7828 193.785 38.0088 192.713 37.5286C181.033 32.294 162.285 26.0199 143.71 24.1702C127.76 22.5866 110.239 24.1219 98.154 34.3612Z" fill="url(#paint2_radial_316_2)"/>
<path d="M98.154 35.8869L0 78.8699V143.344C0 202.983 41.879 258.754 98.154 272.293C154.429 258.754 196.308 202.983 196.308 143.344V78.8699L98.154 35.8869Z" fill="url(#paint3_radial_316_2)"/>
</mask>
<g mask="url(#mask0_316_2)">
<path d="M73.3962 279.831V175.416M97.58 279.831V161.165M97.58 161.165C104.488 161.165 110.089 155.564 110.089 148.656C110.089 141.747 104.488 136.147 97.58 136.147C90.6715 136.147 85.0711 141.747 85.0711 148.656C85.0711 155.564 90.6715 161.165 97.58 161.165ZM123.432 277.535V174.685L148.449 149.564V93.6169M48.3785 115.299V150.398L73.389 175.519M48.3785 115.299C55.2869 115.299 60.8873 109.699 60.8873 102.79C60.8873 95.8816 55.2869 90.2812 48.3785 90.2812C41.47 90.2812 35.8696 95.8816 35.8696 102.79C35.8696 109.699 41.47 115.299 48.3785 115.299ZM148.449 93.6169C155.358 93.6169 160.958 88.0165 160.958 81.108C160.958 74.1996 155.358 68.5992 148.449 68.5992C141.541 68.5992 135.941 74.1996 135.941 81.108C135.941 88.0165 141.541 93.6169 148.449 93.6169ZM164.711 203.455C166.967 205.667 170.058 207.031 173.467 207.031C180.376 207.031 185.976 201.43 185.976 194.522C185.976 187.613 180.376 182.013 173.467 182.013C166.559 182.013 160.958 187.613 160.958 194.522C160.958 198.021 162.395 201.185 164.711 203.455ZM164.711 203.455L160.958 207.031L149.283 217.872V227.263V277.535M30.1974 177.009C32.6604 174.725 34.2017 171.461 34.2017 167.836C34.2017 160.928 28.6013 155.327 21.6929 155.327C14.7844 155.327 9.18401 160.928 9.18401 167.836C9.18401 174.745 14.7844 180.345 21.6929 180.345C24.977 180.345 27.9655 179.079 30.1974 177.009ZM30.1974 177.009L34.2017 180.345L48.7954 191.983V277.535" stroke="#005FD8" stroke-width="9" stroke-linecap="round" stroke-linejoin="round"/>
<path d="M73.3962 279.831V175.416M97.58 279.831V161.165M97.58 161.165C104.488 161.165 110.089 155.564 110.089 148.656C110.089 141.747 104.488 136.147 97.58 136.147C90.6715 136.147 85.0711 141.747 85.0711 148.656C85.0711 155.564 90.6715 161.165 97.58 161.165ZM123.432 277.535V174.685L148.449 149.564V93.6169M48.3785 115.299V150.398L73.389 175.519M48.3785 115.299C55.2869 115.299 60.8873 109.699 60.8873 102.79C60.8873 95.8816 55.2869 90.2812 48.3785 90.2812C41.47 90.2812 35.8696 95.8816 35.8696 102.79C35.8696 109.699 41.47 115.299 48.3785 115.299ZM148.449 93.6169C155.358 93.6169 160.958 88.0165 160.958 81.108C160.958 74.1996 155.358 68.5992 148.449 68.5992C141.541 68.5992 135.941 74.1996 135.941 81.108C135.941 88.0165 141.541 93.6169 148.449 93.6169ZM164.711 203.455C166.967 205.667 170.058 207.031 173.467 207.031C180.376 207.031 185.976 201.43 185.976 194.522C185.976 187.613 180.376 182.013 173.467 182.013C166.559 182.013 160.958 187.613 160.958 194.522C160.958 198.021 162.395 201.185 164.711 203.455ZM164.711 203.455L160.958 207.031L149.283 217.872V227.263V277.535M30.1974 177.009C32.6604 174.725 34.2017 171.461 34.2017 167.836C34.2017 160.928 28.6013 155.327 21.6929 155.327C14.7844 155.327 9.18401 160.928 9.18401 167.836C9.18401 174.745 14.7844 180.345 21.6929 180.345C24.977 180.345 27.9655 179.079 30.1974 177.009ZM30.1974 177.009L34.2017 180.345L48.7954 191.983V277.535" stroke="url(#paint4_linear_316_2)" stroke-opacity="0.2" stroke-width="9" stroke-linecap="round" stroke-linejoin="round"/>
</g>
<defs>
<linearGradient id="paint0_linear_316_2" x1="139.482" y1="-77.7708" x2="97.58" y2="369.949" gradientUnits="userSpaceOnUse">
<stop stop-color="#043573"/>
<stop offset="0.5" stop-color="#032551"/>
<stop offset="1"/>
</linearGradient>
<linearGradient id="paint1_linear_316_2" x1="139.482" y1="-77.7708" x2="97.58" y2="369.949" gradientUnits="userSpaceOnUse">
<stop stop-color="#043573"/>
<stop offset="0.5" stop-color="#032551"/>
<stop offset="1"/>
</linearGradient>
<radialGradient id="paint2_radial_316_2" cx="0" cy="0" r="1" gradientUnits="userSpaceOnUse" gradientTransform="translate(265.343 -43.1128) rotate(121.684) scale(370.642 317.118)">
<stop offset="0.229444" stop-color="#48CAE4"/>
<stop offset="0.332481" stop-color="#2AA7D1"/>
<stop offset="0.477687" stop-color="#0077B6"/>
<stop offset="0.604181" stop-color="#015AA0"/>
<stop offset="0.697272" stop-color="#024791"/>
<stop offset="0.797779" stop-color="#023E8A"/>
<stop offset="1" stop-color="#043573"/>
</radialGradient>
<radialGradient id="paint3_radial_316_2" cx="0" cy="0" r="1" gradientUnits="userSpaceOnUse" gradientTransform="translate(265.343 -43.1128) rotate(121.684) scale(370.642 317.118)">
<stop offset="0.229444" stop-color="#48CAE4"/>
<stop offset="0.332481" stop-color="#2AA7D1"/>
<stop offset="0.477687" stop-color="#0077B6"/>
<stop offset="0.604181" stop-color="#015AA0"/>
<stop offset="0.697272" stop-color="#024791"/>
<stop offset="0.797779" stop-color="#023E8A"/>
<stop offset="1" stop-color="#043573"/>
</radialGradient>
<linearGradient id="paint4_linear_316_2" x1="97.58" y1="68.5992" x2="97.58" y2="307.423" gradientUnits="userSpaceOnUse">
<stop stop-color="#023E8A" stop-opacity="0.49"/>
<stop offset="1" stop-opacity="0"/>
</linearGradient>
</defs>
</svg>
