<svg width="197" height="273" viewBox="0 0 197 273" fill="none" xmlns="http://www.w3.org/2000/svg">
<path d="M98.154 37.3136C84.4912 23.5723 56.0751 3.97747 37.721 4.00588C34.5734 4.00588 31.3316 3.75712 23.557 6.84246V73.0565V139.271C31.544 136.111 39.9531 134.502 48.4227 134.512C67.5278 134.512 84.9586 142.57 98.154 155.812M98.154 37.3136C111.816 23.5716 140.233 4.00588 158.587 4.00588C162.994 4.00589 164.976 3.75712 172.751 6.84246V139.271C164.764 136.111 156.355 134.502 147.885 134.512C129.531 134.484 111.817 142.071 98.154 155.812M98.154 37.3136V155.812" stroke="#023E8A" stroke-width="8" stroke-linecap="round" stroke-linejoin="round"/>
<path d="M98.4812 37.9405C82.8409 24.3705 62.5626 16.4059 41.5519 16.4339C31.5703 16.4339 21.9872 18.0859 13.0872 21.1327V151.91C22.2302 148.79 31.8565 147.201 41.5519 147.211C63.4222 147.211 83.3759 155.168 98.4812 168.245M98.4812 37.9405C114.121 24.3698 134.4 16.4050 155.411 16.4339C165.392 16.4339 174.975 18.0859 183.875 21.1327V151.91C174.732 148.79 165.106 147.201 155.411 147.211C134.4 147.183 114.121 154.675 98.4812 168.245M98.4812 37.9405V168.245" stroke="#005FD8" stroke-width="8" stroke-linecap="round" stroke-linejoin="round"/>
<path d="M98.154 34.3612C86.0688 24.1219 68.5483 22.5987 52.5983 24.1702C34.0226 26.0199 15.2752 32.294 3.59489 37.5286C2.52316 38.0088 1.61433 38.7828 0.97689 39.7582C0.33945 40.7335 0.000326011 41.869 0 43.029V109.518L21.9211 149.362C21.9213 150.373 21.4293 154.599 21.9211 155.487C22.4128 156.375 51.5989 132.072 23.9859 157.674C24.849 158.221 32.0214 157.601 33.0452 157.674C34.0689 157.747 35.0949 157.566 36.0293 157.148C46.8507 152.312 36.9304 170.858 53.8252 169.177C71.1126 167.461 85.6026 170.229 93.369 179.779C93.9438 180.485 94.6722 181.055 95.5004 181.447C96.3286 181.838 97.2354 182.041 98.154 182.041C99.0726 182.041 99.9794 181.838 100.808 181.447C101.636 181.055 102.364 180.485 102.939 179.779C110.705 170.229 125.195 167.461 142.471 169.177C159.378 170.858 157.361 161.935 168.171 166.77C166.048 152.032 177.953 169.251 178.977 169.177C180 169.104 177.123 159.903 177.986 159.356C178.849 158.808 179.784 172.171 180.276 171.283C167.612 151.737 187.633 158.685 187.634 157.674L196.308 109.518V43.029C196.308 41.869 195.969 40.7335 195.331 39.7582C194.694 38.7828 193.785 38.0088 192.713 37.5286C181.033 32.294 162.285 26.0199 143.71 24.1702C127.76 22.5866 110.239 24.1219 98.154 34.3612Z" fill="url(#paint0_linear_316_2)"/>
<path d="M98.154 35.8869L0 78.8699V143.344C0 202.983 41.879 258.754 98.154 272.293C154.429 258.754 196.308 202.983 196.308 143.344V78.8699L98.154 35.8869Z" fill="url(#paint1_linear_316_2)"/>
<defs>
<linearGradient id="paint0_linear_316_2" x1="139.482" y1="-77.7708" x2="97.58" y2="369.949" gradientUnits="userSpaceOnUse">
<stop stop-color="#043573"/>
<stop offset="0.5" stop-color="#032551"/>
<stop offset="1"/>
</linearGradient>
<linearGradient id="paint1_linear_316_2" x1="139.482" y1="-77.7708" x2="97.58" y2="369.949" gradientUnits="userSpaceOnUse">
<stop stop-color="#043573"/>
<stop offset="0.5" stop-color="#032551"/>
<stop offset="1"/>
</linearGradient>
</defs>
</svg>
